<svg width="32" height="32" viewBox="0 0 32 32" fill="none" xmlns="http://www.w3.org/2000/svg">
  <!-- Background -->
  <rect width="32" height="32" rx="6" fill="#3B82F6"/>

  <!-- Keyboard representation -->
  <rect x="6" y="12" width="20" height="12" rx="2" fill="white" opacity="0.9"/>

  <!-- Keys - Top row -->
  <rect x="7" y="13" width="3" height="3" rx="0.5" fill="#3B82F6"/>
  <rect x="11" y="13" width="3" height="3" rx="0.5" fill="#3B82F6"/>
  <rect x="15" y="13" width="3" height="3" rx="0.5" fill="#3B82F6"/>
  <rect x="19" y="13" width="3" height="3" rx="0.5" fill="#3B82F6"/>
  <rect x="23" y="13" width="2" height="3" rx="0.5" fill="#3B82F6"/>

  <!-- Keys - Bottom row -->
  <rect x="7" y="17" width="3" height="3" rx="0.5" fill="#3B82F6"/>
  <rect x="11" y="17" width="3" height="3" rx="0.5" fill="#3B82F6"/>
  <rect x="15" y="17" width="3" height="3" rx="0.5" fill="#3B82F6"/>
  <rect x="19" y="17" width="3" height="3" rx="0.5" fill="#3B82F6"/>
  <rect x="23" y="17" width="2" height="3" rx="0.5" fill="#3B82F6"/>

  <!-- Space bar -->
  <rect x="9" y="21" width="14" height="2" rx="0.5" fill="#3B82F6"/>

  <!-- Cursor indicator -->
  <rect x="14.5" y="8" width="1.5" height="4" rx="0.75" fill="#FBBF24"/>

  <!-- Speed indicator dot -->
  <circle cx="27" cy="15" r="1.5" fill="#FBBF24"/>
</svg>
