<svg width="512" height="512" viewBox="0 0 512 512" fill="none" xmlns="http://www.w3.org/2000/svg">
  <!-- Background Circle -->
  <circle cx="256" cy="256" r="256" fill="#3B82F6"/>

  <!-- Keyboard Base -->
  <rect x="96" y="200" width="320" height="180" rx="16" fill="white" opacity="0.95"/>

  <!-- Keyboard Keys - Top Row -->
  <rect x="116" y="220" width="36" height="36" rx="6" fill="#3B82F6"/>
  <rect x="164" y="220" width="36" height="36" rx="6" fill="#3B82F6"/>
  <rect x="212" y="220" width="36" height="36" rx="6" fill="#3B82F6"/>
  <rect x="260" y="220" width="36" height="36" rx="6" fill="#3B82F6"/>
  <rect x="308" y="220" width="36" height="36" rx="6" fill="#3B82F6"/>
  <rect x="356" y="220" width="36" height="36" rx="6" fill="#3B82F6"/>

  <!-- Keyboard Keys - Middle Row -->
  <rect x="116" y="268" width="36" height="36" rx="6" fill="#3B82F6"/>
  <rect x="164" y="268" width="36" height="36" rx="6" fill="#3B82F6"/>
  <rect x="212" y="268" width="36" height="36" rx="6" fill="#3B82F6"/>
  <rect x="260" y="268" width="36" height="36" rx="6" fill="#3B82F6"/>
  <rect x="308" y="268" width="36" height="36" rx="6" fill="#3B82F6"/>
  <rect x="356" y="268" width="36" height="36" rx="6" fill="#3B82F6"/>

  <!-- Keyboard Keys - Bottom Row (Space Bar) -->
  <rect x="164" y="316" width="184" height="36" rx="6" fill="#3B82F6"/>

  <!-- Typing Cursor/Indicator -->
  <rect x="230" y="140" width="6" height="48" rx="3" fill="#FBBF24">
    <animate attributeName="opacity" values="1;0;1" dur="1s" repeatCount="indefinite"/>
  </rect>

  <!-- Speed Lines (indicating fast typing) -->
  <path d="M 420 250 L 460 250" stroke="#FBBF24" stroke-width="6" stroke-linecap="round" opacity="0.8"/>
  <path d="M 430 230 L 460 230" stroke="#FBBF24" stroke-width="6" stroke-linecap="round" opacity="0.6"/>
  <path d="M 430 270 L 460 270" stroke="#FBBF24" stroke-width="6" stroke-linecap="round" opacity="0.6"/>
</svg>
